<svg width="493" height="344" viewBox="0 0 493 344" fill="none" xmlns="http://www.w3.org/2000/svg">
<g clip-path="url(#clip0_5_2)">
<path d="M27.3823 317.133C27.6163 325.863 29.079 334.515 31.7275 342.837C31.7862 343.03 31.8514 343.22 31.9148 343.413H48.1287C48.1117 343.24 48.0941 343.047 48.0771 342.837C46.9961 330.411 53.1721 255.69 60.6246 242.758C59.9717 243.807 26.1252 277.653 27.3823 317.133Z" fill="#F1F1F1"/>
<path d="M28.5992 342.836C28.7349 343.03 28.8758 343.223 29.0202 343.413H41.1844C41.0922 343.249 40.9853 343.055 40.8614 342.836C38.8521 339.211 32.9045 328.371 27.3838 317.133C21.4532 305.057 16.0076 292.523 16.4662 287.986C16.3241 289.009 12.2186 320.2 28.5992 342.836Z" fill="#F1F1F1"/>
<path d="M382.428 70.7823C382.892 71.9298 383.603 72.9616 384.509 73.8051C385.415 74.6485 386.495 75.2831 387.673 75.6641C388.851 76.0452 390.098 76.1633 391.326 76.0104C392.555 75.8574 393.735 75.4369 394.784 74.7787L418.259 93.6045L419.712 78.0374L397.197 62.5467C395.974 60.8591 394.174 59.6786 392.139 59.2289C390.104 58.7792 387.974 59.0915 386.154 60.1067C384.333 61.1218 382.949 62.7692 382.262 64.7368C381.575 66.7044 381.635 68.8554 382.428 70.7823Z" fill="#9F616A"/>
<path d="M418.783 76.5758L410.021 70.3867L400.083 81.8661L411.644 88.7156L418.783 76.5758Z" fill="#0BDA51"/>
<path d="M416.864 72.3784L446.392 83.7368L474.817 65.1292C477.755 63.2061 481.292 62.4175 484.768 62.9107C488.245 63.4039 491.423 65.1452 493.709 67.8095C495.996 70.4737 497.234 73.8788 497.193 77.389C497.152 80.8991 495.835 84.2745 493.487 86.8847L493.233 87.1669L449.514 110.6L401.761 88.7903L416.864 72.3784Z" fill="#3F3D56"/>
<path d="M408.54 342.239H100.855L112.011 124.45H160.161L204.56 155.563H419.696L408.54 342.239Z" fill="#E5E5E5"/>
<path d="M333.221 275.824L155.383 202.605C154.761 202.348 154.267 201.855 154.008 201.234C153.75 200.613 153.748 199.915 154.003 199.293L234.585 3.67625C234.842 3.05468 235.335 2.56037 235.956 2.30174C236.577 2.04311 237.275 2.04129 237.897 2.29667L415.735 75.5159C416.357 75.7728 416.851 76.2656 417.11 76.8864C417.369 77.5072 417.37 78.2053 417.115 78.8274L336.533 274.444C336.276 275.066 335.783 275.56 335.162 275.819C334.541 276.078 333.843 276.079 333.221 275.824Z" fill="white"/>
<path d="M333.221 275.824L155.383 202.605C154.761 202.348 154.267 201.855 154.008 201.234C153.75 200.613 153.748 199.915 154.003 199.293L234.585 3.67625C234.842 3.05468 235.335 2.56037 235.956 2.30174C236.577 2.04311 237.275 2.04129 237.897 2.29667L415.735 75.5159C416.357 75.7728 416.851 76.2656 417.11 76.8864C417.369 77.5072 417.37 78.2053 417.115 78.8274L336.533 274.444C336.276 275.066 335.783 275.56 335.162 275.819C334.541 276.078 333.843 276.079 333.221 275.824ZM237.511 3.23489C237.137 3.08163 236.718 3.08272 236.346 3.2379C235.973 3.39308 235.677 3.68968 235.523 4.06263L154.942 199.68C154.788 200.053 154.79 200.472 154.945 200.844C155.1 201.217 155.397 201.512 155.77 201.667L333.607 274.886C333.981 275.039 334.4 275.038 334.772 274.883C335.145 274.728 335.441 274.431 335.595 274.058L416.176 78.441C416.33 78.0677 416.329 77.6489 416.173 77.2764C416.018 76.9039 415.722 76.6082 415.348 76.4541L237.511 3.23489Z" fill="#3F3D56"/>
<path d="M287.739 99.1298L243.631 80.9699C243.01 80.7131 242.515 80.2202 242.256 79.5994C241.998 78.9786 241.996 78.2805 242.251 77.6584L260.416 33.5625C260.673 32.9409 261.166 32.4466 261.787 32.188C262.408 31.9293 263.106 31.9275 263.728 32.1829L307.836 50.3428C308.458 50.5996 308.952 51.0925 309.211 51.7133C309.469 52.3341 309.471 53.0322 309.216 53.6543L291.051 97.7502C290.794 98.3718 290.301 98.8661 289.68 99.1247C289.059 99.3834 288.361 99.3852 287.739 99.1298ZM263.342 33.1211C262.968 32.9679 262.55 32.9689 262.177 33.1241C261.804 33.2793 261.509 33.5759 261.354 33.9489L243.19 78.0448C243.036 78.4181 243.038 78.8369 243.193 79.2094C243.348 79.5819 243.645 79.8776 244.018 80.0317L288.125 98.1916C288.499 98.3448 288.918 98.3438 289.29 98.1886C289.663 98.0334 289.959 97.7368 290.113 97.3638L308.277 53.2679C308.431 52.8946 308.43 52.4758 308.274 52.1033C308.119 51.7308 307.822 51.4351 307.449 51.281L263.342 33.1211Z" fill="#F2F2F2"/>
<path d="M272.847 99.3085L228.74 81.1485C228.18 80.9174 227.735 80.4738 227.502 79.9151C227.27 79.3564 227.268 78.7281 227.498 78.1682L245.663 34.0723C245.894 33.5128 246.338 33.068 246.896 32.8352C247.455 32.6024 248.084 32.6008 248.644 32.8306L292.751 50.9906C293.311 51.2217 293.756 51.6653 293.989 52.224C294.222 52.7827 294.223 53.411 293.993 53.9709L275.829 98.0668C275.597 98.6263 275.154 99.0712 274.595 99.3039C274.036 99.5367 273.407 99.5383 272.847 99.3085Z" fill="#0BDA51"/>
<path d="M357.804 159.525L219.851 102.727C219.574 102.613 219.322 102.446 219.109 102.234C218.897 102.022 218.728 101.771 218.613 101.494C218.497 101.218 218.438 100.921 218.437 100.621C218.436 100.321 218.495 100.024 218.609 99.7471C218.723 99.4699 218.891 99.2179 219.103 99.0054C219.314 98.793 219.566 98.6244 219.842 98.5091C220.119 98.3938 220.416 98.3341 220.716 98.3335C221.016 98.3329 221.313 98.3913 221.59 98.5055L359.543 155.304C360.103 155.534 360.549 155.978 360.782 156.537C361.015 157.095 361.016 157.724 360.785 158.284C360.555 158.844 360.111 159.289 359.552 159.522C358.993 159.755 358.364 159.756 357.804 159.525Z" fill="#CCCCCC"/>
<path d="M318.498 160.351L213.86 117.27C213.583 117.156 213.331 116.988 213.118 116.776C212.906 116.565 212.737 116.313 212.622 116.037C212.507 115.76 212.447 115.463 212.446 115.163C212.446 114.864 212.504 114.567 212.618 114.289C212.733 114.012 212.9 113.76 213.112 113.548C213.323 113.335 213.575 113.167 213.852 113.051C214.129 112.936 214.425 112.876 214.725 112.876C215.025 112.875 215.322 112.934 215.599 113.048L320.237 156.129C320.797 156.36 321.243 156.803 321.476 157.362C321.709 157.921 321.71 158.55 321.479 159.11C321.249 159.669 320.805 160.115 320.246 160.348C319.687 160.58 319.058 160.582 318.498 160.351Z" fill="#CCCCCC"/>
<path d="M379.364 105.854L318.365 80.7394C318.087 80.6252 317.835 80.4576 317.623 80.246C317.41 80.0344 317.242 79.7831 317.126 79.5064C317.011 79.2296 316.951 78.9329 316.951 78.6331C316.95 78.3333 317.009 78.0363 317.123 77.7591C317.237 77.4818 317.405 77.2298 317.616 77.0174C317.828 76.805 318.079 76.6363 318.356 76.521C318.633 76.4057 318.93 76.3461 319.23 76.3455C319.529 76.3449 319.827 76.4033 320.104 76.5175L381.104 101.632C381.664 101.863 382.109 102.306 382.342 102.865C382.575 103.424 382.576 104.053 382.345 104.613C382.115 105.172 381.671 105.618 381.112 105.851C380.553 106.083 379.924 106.085 379.364 105.854Z" fill="#CCCCCC"/>
<path d="M358.15 114.129L312.374 95.2816C311.814 95.0511 311.368 94.6075 311.136 94.0486C310.903 93.4897 310.901 92.8612 311.132 92.3013C311.363 91.7414 311.806 91.2961 312.365 91.0633C312.924 90.8304 313.553 90.8291 314.113 91.0597L359.889 109.907C360.449 110.137 360.895 110.581 361.128 111.14C361.361 111.699 361.362 112.327 361.131 112.887C360.901 113.447 360.457 113.892 359.898 114.125C359.339 114.358 358.71 114.359 358.15 114.129Z" fill="#CCCCCC"/>
<path d="M345.823 188.61L207.87 131.812C207.593 131.698 207.341 131.53 207.128 131.319C206.916 131.107 206.747 130.856 206.632 130.579C206.516 130.302 206.457 130.005 206.456 129.706C206.455 129.406 206.514 129.109 206.628 128.832C206.742 128.554 206.91 128.302 207.122 128.09C207.333 127.877 207.585 127.709 207.861 127.594C208.138 127.478 208.435 127.419 208.735 127.418C209.035 127.417 209.332 127.476 209.609 127.59L347.562 184.388C348.122 184.619 348.568 185.062 348.801 185.621C349.034 186.18 349.035 186.808 348.804 187.368C348.574 187.928 348.13 188.374 347.571 188.606C347.012 188.839 346.383 188.841 345.823 188.61Z" fill="#CCCCCC"/>
<path d="M306.517 189.436L201.879 146.354C201.602 146.24 201.35 146.072 201.137 145.861C200.925 145.649 200.756 145.398 200.641 145.121C200.526 144.844 200.466 144.548 200.465 144.248C200.465 143.948 200.523 143.651 200.637 143.374C200.752 143.097 200.919 142.845 201.131 142.632C201.343 142.42 201.594 142.251 201.871 142.136C202.148 142.02 202.444 141.961 202.744 141.96C203.044 141.96 203.341 142.018 203.618 142.132L308.257 185.214C308.534 185.328 308.786 185.496 308.998 185.707C309.211 185.919 309.38 186.17 309.495 186.447C309.61 186.723 309.67 187.02 309.671 187.32C309.671 187.62 309.613 187.917 309.498 188.194C309.384 188.471 309.217 188.723 309.005 188.936C308.793 189.148 308.542 189.317 308.265 189.432C307.988 189.547 307.691 189.607 307.392 189.608C307.092 189.608 306.795 189.55 306.517 189.436Z" fill="#CCCCCC"/>
<path d="M333.842 217.694L195.889 160.896C195.329 160.666 194.884 160.222 194.651 159.663C194.418 159.104 194.417 158.476 194.647 157.916C194.878 157.356 195.321 156.911 195.88 156.678C196.44 156.445 197.068 156.444 197.628 156.674L335.581 213.472C336.141 213.703 336.587 214.147 336.82 214.705C337.053 215.264 337.054 215.893 336.823 216.453C336.593 217.013 336.149 217.458 335.59 217.691C335.031 217.924 334.402 217.925 333.842 217.694Z" fill="#CCCCCC"/>
<path d="M327.852 232.237L189.898 175.439C189.338 175.208 188.893 174.765 188.66 174.206C188.427 173.647 188.426 173.018 188.656 172.458C188.887 171.898 189.331 171.453 189.89 171.22C190.449 170.987 191.078 170.986 191.638 171.217L329.591 228.015C329.868 228.129 330.12 228.297 330.333 228.508C330.545 228.72 330.714 228.971 330.829 229.248C330.944 229.525 331.004 229.821 331.005 230.121C331.005 230.421 330.947 230.718 330.833 230.995C330.718 231.272 330.551 231.524 330.339 231.737C330.128 231.949 329.876 232.118 329.599 232.233C329.323 232.348 329.026 232.408 328.726 232.409C328.426 232.409 328.129 232.351 327.852 232.237Z" fill="#CCCCCC"/>
<path d="M260.552 231.156C263.313 231.302 266.081 231.218 268.828 230.904C271.301 230.615 273.878 230.217 276.046 228.917C276.984 228.382 277.782 227.634 278.376 226.732C278.97 225.831 279.343 224.803 279.464 223.73C279.56 222.71 279.328 221.686 278.803 220.806C278.278 219.926 277.486 219.236 276.543 218.836C275.586 218.433 274.537 218.297 273.509 218.441C272.48 218.585 271.509 219.004 270.7 219.655C269.835 220.406 269.151 221.342 268.698 222.394C268.246 223.447 268.037 224.587 268.087 225.732C268.201 230.43 271.92 235.071 276.049 237.025C280.7 239.227 287.051 237.356 288.242 231.935C288.49 230.807 286.954 230.415 286.312 231.14C285.435 232.106 284.96 233.371 284.985 234.675C285.009 235.98 285.531 237.226 286.443 238.158C287.356 239.091 288.59 239.641 289.894 239.694C291.198 239.748 292.473 239.302 293.459 238.447L291.73 237.736C292.233 239.84 293.281 241.776 294.769 243.347C296.257 244.919 298.133 246.071 300.208 246.687C301.231 246.994 302.293 247.155 303.362 247.167C304.661 247.171 305.995 247.823 307.237 248.227L316.188 251.143C317.505 251.572 318.34 249.574 317.013 249.141L308.906 246.501C307.555 246.061 306.207 245.609 304.853 245.181C303.884 244.875 302.824 245.04 301.813 244.86C299.923 244.502 298.172 243.615 296.767 242.3C295.361 240.986 294.358 239.299 293.875 237.437C293.846 237.252 293.769 237.077 293.653 236.93C293.536 236.783 293.384 236.668 293.21 236.597C293.037 236.525 292.848 236.499 292.662 236.522C292.475 236.544 292.298 236.615 292.146 236.725C291.58 237.264 290.824 237.557 290.042 237.541C289.26 237.525 288.517 237.201 287.973 236.64C287.429 236.078 287.129 235.324 287.139 234.543C287.148 233.761 287.466 233.015 288.023 232.467L286.093 231.672C285.324 235.169 281.057 236.482 277.981 235.47C274.542 234.339 271.586 231.048 270.56 227.601C270.286 226.773 270.185 225.897 270.265 225.028C270.344 224.159 270.602 223.316 271.022 222.551C271.396 221.854 271.98 221.291 272.691 220.943C273.402 220.595 274.205 220.479 274.986 220.611C275.683 220.709 276.315 221.074 276.747 221.63C277.18 222.185 277.38 222.887 277.305 223.587C277.191 224.374 276.884 225.122 276.412 225.763C275.941 226.404 275.319 226.92 274.601 227.264C272.666 228.303 270.348 228.561 268.198 228.797C265.746 229.064 263.277 229.134 260.815 229.007C259.432 228.938 259.155 231.086 260.552 231.156Z" fill="#0BDA51"/>
<path d="M408.54 170.239V342.239H100.855V139.126H149.004L193.401 170.239H408.54Z" fill="white"/>
<path d="M245.302 309.952H119.645V319.932H245.302V309.952Z" fill="#0BDA51"/>
<path d="M182.473 290.58H119.645V300.56H182.473V290.58Z" fill="#0BDA51"/>
<path d="M409.127 342.826H100.268V138.539H149.189L193.589 169.652H409.127V342.826ZM101.442 341.652H407.952V170.826H193.218L148.819 139.713H101.442V341.652Z" fill="#3F3D56"/>
<path d="M466.136 332.36H455.079L449.82 289.727L466.137 289.727L466.136 332.36Z" fill="#9F616A"/>
<path d="M468.955 343.075L433.306 343.074V342.623C433.306 340.801 433.665 338.997 434.362 337.314C435.059 335.631 436.081 334.102 437.37 332.814C438.658 331.526 440.188 330.504 441.872 329.807C443.555 329.11 445.359 328.751 447.182 328.751H447.182L468.956 328.752L468.955 343.075Z" fill="#2F2E41"/>
<path d="M491.332 59.9865L486.524 50.488C486.524 50.488 468.612 54.9746 466.983 65.3533L491.332 59.9865Z" fill="#0BDA51"/>
<path d="M511.172 168.594L498.096 241.544L532.816 302.929L512.074 311.043L476.903 251.539L472.394 235.311L469.689 320.059L450.983 319.491L442.406 240.357L456.162 166.791L511.172 168.594Z" fill="#2F2E41"/>
<path d="M508.466 135.636L508.014 92.8586C508.014 74.7289 496.079 61.3661 494.424 60.13C493.646 57.6463 492.249 55.9295 490.274 55.0311C486.296 53.2284 481.43 55.3916 481.224 55.4889L466.627 60.9598L466.559 61.1601C466.404 61.6179 451.675 109.935 447.977 122.062C447.451 123.802 447.147 124.797 447.147 124.797C447.147 124.797 447.205 127.602 447.308 131.962C447.634 146.956 448.407 180.354 448.716 181.756C448.716 181.756 475.677 185.842 486.353 185.842C505.558 185.842 517.757 182.168 518.031 182.105L518.472 182.014L508.466 135.636Z" fill="#3F3D56"/>
<path d="M481.055 45.0797C490.619 39.8533 494.133 27.866 488.906 18.3052C483.678 8.74439 471.687 5.23064 462.124 10.457C452.561 15.6834 449.046 27.6707 454.274 37.2315C459.501 46.7923 471.492 50.3061 481.055 45.0797Z" fill="#9F616A"/>
<path opacity="0.2" d="M473.777 126.583L447.308 131.962C447.205 127.602 447.147 124.798 447.147 124.798C447.147 124.798 447.451 123.802 447.977 122.062L473.777 126.583Z" fill="black"/>
<path d="M395.392 120.944C396.332 121.75 397.437 122.34 398.63 122.672C399.822 123.004 401.073 123.072 402.295 122.868C403.516 122.665 404.678 122.197 405.698 121.496C406.719 120.796 407.574 119.88 408.202 118.813L437.707 124.739L431.838 110.247L404.719 106.842C402.857 105.905 400.716 105.684 398.701 106.221C396.687 106.757 394.94 108.013 393.79 109.751C392.64 111.49 392.169 113.589 392.464 115.652C392.759 117.715 393.801 119.598 395.392 120.944Z" fill="#9F616A"/>
<path d="M430.34 109.376L419.713 107.908L416.168 122.671L429.584 123.438L430.34 109.376Z" fill="#0BDA51"/>
<path d="M426.706 106.531L458.151 103.043L474.834 73.4524C476.558 70.3942 479.336 68.0679 482.65 66.9077C485.964 65.7475 489.587 65.8327 492.843 67.1475C496.099 68.4623 498.765 70.9168 500.343 74.0527C501.921 77.1886 502.304 80.7915 501.419 84.1887L501.323 84.5562L473.279 125.463L420.842 128.048L426.706 106.531Z" fill="#3F3D56"/>
<path d="M488.399 44.8977L472.019 45.4855C471.021 45.5213 468.311 34.749 467.957 32.5143C467.676 31.0595 466.876 29.7564 465.705 28.8484C464.534 27.9405 463.072 27.4898 461.593 27.5805C460.366 27.6962 457.275 25.4062 454.084 22.6945C448.027 17.5463 448.342 7.87721 454.996 3.52698C455.178 3.40809 455.356 3.29952 455.531 3.20129C459.729 0.852512 464.639 0.0637634 469.449 0.00361626C473.809 -0.0509071 478.293 0.497756 482.135 2.56103C489.021 6.26004 492.687 14.3434 493.009 22.1525C493.33 29.9615 490.826 37.5973 487.985 44.8784" fill="#2F2E41"/>
<path d="M558.413 344H0.587185C0.431454 344 0.282101 343.938 0.171982 343.828C0.0618635 343.718 0 343.569 0 343.413C0 343.257 0.0618635 343.108 0.171982 342.998C0.282101 342.888 0.431454 342.826 0.587185 342.826H558.413C558.569 342.826 558.718 342.888 558.828 342.998C558.938 343.108 559 343.257 559 343.413C559 343.569 558.938 343.718 558.828 343.828C558.718 343.938 558.569 344 558.413 344Z" fill="#CBCBCB"/>
</g>
<defs>
<clipPath id="clip0_5_2">
<rect width="559" height="344" fill="white"/>
</clipPath>
</defs>
</svg>
