<svg width="97" height="84" viewBox="0 0 97 84" fill="none" xmlns="http://www.w3.org/2000/svg">
<path d="M32.63 12.9258C32.4818 13.2962 32.5188 20.2962 32.667 21.4444C32.7411 21.9629 41.4818 21.7777 41.667 21.2592C41.7781 21.037 41.8151 19.074 41.7411 16.9258C41.667 14.7777 41.5929 12.9258 41.5929 12.7407C41.5929 12.5925 39.5929 12.4814 37.1855 12.4814C34.0003 12.4814 32.7411 12.5925 32.63 12.9258Z" fill="#479947"/>
<path d="M43.9631 24.4444C43.889 24.7037 43.852 26.7407 43.889 28.9999L44.0002 33.037H48.4446H52.889L53.0002 28.4814L53.1113 23.9629H48.6298C45.2964 23.9629 44.1113 24.074 43.9631 24.4444Z" fill="#479947"/>
<path d="M55.4446 24.4444C55.3705 24.7037 55.3334 26.7407 55.3705 28.9999L55.4816 33.037H59.926H64.3705L64.4816 28.4814L64.5927 23.9629H60.1112C56.7779 23.9629 55.5927 24.074 55.4446 24.4444Z" fill="#479947"/>
<path d="M32.5926 35.7037C32.4815 35.9259 32.5555 43.2963 32.6666 44.4074C32.7407 44.9259 41.1111 44.7407 41.4815 44.2222C41.6666 44 41.7407 41.8889 41.6666 39.5926L41.5185 35.4444H37.1481C34.7407 35.4444 32.6666 35.5555 32.5926 35.7037Z" fill="#479947"/>
<path d="M34.3333 1.33327C32.8148 2.25919 31.8148 4.40734 32.0741 6.25919C32.4445 9.11104 34.3333 10.7777 37.1482 10.7777C39.963 10.7777 41.8519 9.11104 42.2222 6.25919C42.6296 3.18512 40.3333 0.629561 37.1482 0.629561C36.1852 0.629561 35 0.925858 34.3333 1.33327Z" fill="#C93826"/>
<path d="M43.9631 1.48145C43.889 1.74071 43.852 3.77775 43.889 6.03701L44.0002 10.074L48.5557 10.1852L53.1113 10.2963L53.0002 5.74071L52.889 1.18515L48.5187 1.07404C45.1483 0.999969 44.1113 1.07404 43.9631 1.48145Z" fill="#479947"/>
<path d="M55.4446 1.48145C55.3705 1.74071 55.3334 3.77775 55.3705 6.03701L55.4816 10.074L60.0372 10.1852L64.5927 10.2963L64.4816 5.74071L64.3705 1.18515L60.0001 1.07404C56.6297 0.999969 55.5927 1.07404 55.4446 1.48145Z" fill="#479947"/>
<path d="M43.9631 12.9629C43.889 13.2222 43.852 15.2592 43.889 17.5185L44.0002 21.5555L48.5557 21.6666L53.0742 21.7777V17.111V12.4814H48.6298C45.2964 12.4814 44.1113 12.5925 43.9631 12.9629Z" fill="#479947"/>
<path d="M32.519 24.6666C32.2967 25.4444 32.3338 31.5925 32.593 32.5555C32.7412 33.1481 33.2597 33.2222 37.1486 33.2222C41.0004 33.2222 41.556 33.1481 41.7412 32.5555C41.8523 32.074 41.7782 25.6296 41.6301 24.2222C41.593 24.074 39.593 23.9629 37.1856 23.9629C33.1486 23.9629 32.7412 24.037 32.519 24.6666Z" fill="#479947"/>
<path d="M43.9631 35.9258C43.889 36.1851 43.852 38.2221 43.889 40.4814L44.0002 44.5184H48.4446H52.889L53.0002 39.9629L53.1113 35.4444H48.6298C45.2964 35.4444 44.1113 35.5555 43.9631 35.9258Z" fill="#479947"/>
<path d="M30.4815 51.8518C29.2963 52.4444 28.7407 54 29.2593 55.1481C29.4815 55.6296 30.4074 56.4074 31.3704 56.8889C34.1481 58.3333 33.4444 60.0741 30.4074 59.2592C29.0741 58.8889 29 58.9259 29 59.7037C29 61.7407 34.2593 61.4074 34.7778 59.3333C35.1852 57.7407 34.6296 56.6296 33.1481 55.8518C32.3704 55.4444 31.4815 54.8518 31.2222 54.5185C30.4444 53.5555 31.5926 52.8148 33.1852 53.2592C34.4815 53.6296 34.4444 53.6296 34.6296 52.7037C34.8148 51.5555 32.1852 51 30.4815 51.8518Z" fill="white"/>
<path d="M76.2595 51.9259C74.815 52.7037 74.2595 53.4815 73.9632 55.3333C73.7039 57.1111 74.2595 59.1481 75.2965 60.0741C76.2224 60.9259 79.0373 61.2222 80.4817 60.6296C81.9632 60 82.7039 58.5185 82.7039 56.1111C82.7039 53.7778 82.0373 52.6296 80.2595 51.8889C78.6669 51.2222 77.5928 51.2222 76.2595 51.9259ZM80.2224 54.037C81.2595 55.2592 80.9261 58.3703 79.5928 59.2222C78.8521 59.7407 77.5187 59.5185 76.778 58.7778C76.2595 58.2592 76.0373 57.5555 76.0373 56.2592C76.0373 54.3333 76.2224 53.9259 77.3336 53.2963C78.2595 52.7778 79.3706 53.0741 80.2224 54.037Z" fill="white"/>
<path d="M14.1855 56.3704V61H15.2967H16.4078V56.3704V51.7407H15.2967H14.1855V56.3704Z" fill="white"/>
<path d="M18.6299 56.3704V61H19.5558C20.4817 61 20.4817 61 20.4817 57.3704V53.7778L22.5558 57.3704C24.5558 60.8519 24.704 61 25.8891 61H27.1484V56.3704V51.7407H26.2225C25.2966 51.7407 25.2966 51.7778 25.2966 55.1481V58.5926L23.3336 55.1852C21.4447 51.8148 21.3706 51.7407 20.0373 51.7407H18.6299V56.3704Z" fill="white"/>
<path d="M36.0371 52.4815C36.0371 53.0741 36.2964 53.2222 37.3334 53.2222H38.6297V57.1111V61H39.5556H40.4816V57.1111V53.2222H41.7779C42.8149 53.2222 43.0741 53.0741 43.0741 52.4815C43.0741 51.7778 42.8149 51.7407 39.5556 51.7407C36.2964 51.7407 36.0371 51.7778 36.0371 52.4815Z" fill="white"/>
<path d="M44.1855 56.3704V61H45.2967H46.4078V56.3704V51.7407H45.2967H44.1855V56.3704Z" fill="white"/>
<path d="M47.8892 52.4815C47.8892 53.0741 48.1484 53.2222 49.1855 53.2222H50.4818V57.1111V61H51.4077H52.3336V57.1111V53.2222H53.6299C54.6669 53.2222 54.9262 53.0741 54.9262 52.4815C54.9262 51.7778 54.6669 51.7407 51.4077 51.7407C48.1484 51.7407 47.8892 51.7778 47.8892 52.4815Z" fill="white"/>
<path d="M56.4077 55.2963C56.4077 58.7037 56.4448 58.8889 57.4818 59.9259C58.3707 60.8148 58.8892 61 60.2966 61C61.704 61 62.2225 60.8148 63.1114 59.9259C64.1485 58.8889 64.1855 58.7037 64.1855 55.2963C64.1855 51.7407 64.1855 51.7407 63.2596 51.7407C62.3336 51.7407 62.3336 51.7778 62.3336 55.037C62.3336 58.6667 61.9262 59.5185 60.2966 59.5185C58.8151 59.5185 58.2596 58.2222 58.2596 54.8148C58.2596 51.7778 58.2596 51.7407 57.3336 51.7407C56.4077 51.7407 56.4077 51.7407 56.4077 55.2963Z" fill="white"/>
<path d="M65.667 52.4815C65.667 53.0741 65.9263 53.2222 66.9633 53.2222H68.2596V57.1111V61H69.1855H70.1114V57.1111V53.2222H71.4077C72.4448 53.2222 72.704 53.0741 72.704 52.4815C72.704 51.7778 72.4448 51.7407 69.1855 51.7407C65.9263 51.7407 65.667 51.7778 65.667 52.4815Z" fill="white"/>
<path d="M63.2593 64.7777C62.8889 65.8518 62.1111 68.037 61.5556 69.5926L60.5186 72.4814H61.5556C62.4445 72.4814 62.7037 72.2963 62.8889 71.3703C63.1111 70.3333 63.2223 70.2592 64.963 70.2592C66.7037 70.2592 66.8519 70.3333 67.1852 71.3703C67.4815 72.1851 67.8149 72.4814 68.4815 72.4814C68.963 72.4814 69.3704 72.2592 69.3704 72C69.3334 71.7777 68.6297 69.6296 67.7778 67.2963C66.2593 63.1851 66.1852 63.037 65.0371 62.9259C63.963 62.8148 63.8519 62.8889 63.2593 64.7777ZM65.6667 66.2222C65.8889 67.037 66.1852 67.9629 66.2963 68.2592C66.4445 68.6296 66.1482 68.7777 65.1482 68.7777C64.4074 68.7777 63.8149 68.7407 63.8149 68.6666C63.8149 68.2592 65 64.7037 65.1111 64.7037C65.1852 64.7037 65.4445 65.3703 65.6667 66.2222Z" fill="white"/>
<path d="M20.4814 67.8518V72.4814H21.4074C22.2592 72.4814 22.3333 72.3703 22.3333 70.6296V68.7777H24C25.4074 68.7777 25.6666 68.6666 25.6666 68.074C25.6666 67.4814 25.3703 67.3333 24.1111 67.2222C22.6296 67.1111 22.5185 67.037 22.4074 65.8889L22.2963 64.7037H24.1481C25.7777 64.7037 26.037 64.5926 26.037 63.9629C26.037 63.2963 25.7777 63.2222 23.2592 63.2222H20.4814V67.8518Z" fill="white"/>
<path d="M27.8892 67.8518V72.4814H30.6669C33.1855 72.4814 33.4447 72.4074 33.4447 71.7407C33.4447 71.1111 33.1855 71 31.778 71C30.1114 71 30.1114 71 30.1114 69.7037C30.1114 68.4444 30.1484 68.4074 31.5929 68.4074C32.8151 68.4074 33.0743 68.2963 33.0743 67.6666C33.0743 67.037 32.8151 66.9259 31.5929 66.9259C30.1855 66.9259 30.1114 66.8518 30.1114 65.8148C30.1114 64.7407 30.1855 64.7037 31.778 64.7037C33.1855 64.7037 33.4447 64.5926 33.4447 63.9629C33.4447 63.2963 33.1855 63.2222 30.6669 63.2222H27.8892V67.8518Z" fill="white"/>
<path d="M35.2964 67.8518V72.4814H37.3334C41.2223 72.4814 43.0742 71.037 43.0742 67.9629C43.0742 64.4444 41.7038 63.2222 37.7038 63.2222H35.2964V67.8518ZM40.4816 65.4444C41.4075 66.3703 41.4816 68.7777 40.5927 69.8518C40.2223 70.2592 39.3705 70.7407 38.7408 70.8518L37.5186 71.074V67.8889V64.7037H38.6297C39.2593 64.7037 40.0742 65.037 40.4816 65.4444Z" fill="white"/>
<path d="M45.2964 67.8518V72.4814H48.0742C50.5927 72.4814 50.8519 72.4074 50.8519 71.7407C50.8519 71.1111 50.5927 71 49.1853 71C47.5186 71 47.5186 71 47.5186 69.7037C47.5186 68.4444 47.5556 68.4074 49.0001 68.4074C50.2223 68.4074 50.4816 68.2963 50.4816 67.6666C50.4816 67.037 50.2223 66.9259 49.0001 66.9259C47.5927 66.9259 47.5186 66.8518 47.5186 65.8148C47.5186 64.7407 47.5927 64.7037 49.1853 64.7037C50.5927 64.7037 50.8519 64.5926 50.8519 63.9629C50.8519 63.2963 50.5927 63.2222 48.0742 63.2222H45.2964V67.8518Z" fill="white"/>
<path d="M52.7041 67.8518V72.4814H53.8152C54.8893 72.4814 54.9263 72.4444 54.9263 70.6296C54.9263 69.3333 55.0745 68.7777 55.4448 68.7777C55.7041 68.7777 56.4448 69.5926 57.0745 70.6296C57.9634 72.074 58.4448 72.4814 59.1856 72.4814C59.7041 72.4814 60.1115 72.3703 60.1115 72.2592C60.1115 72.1111 59.556 71.2222 58.8522 70.2963L57.63 68.5555L58.4819 67.5185C59.556 66.2963 59.593 65.4814 58.593 64.1851C57.8893 63.2963 57.593 63.2222 55.2597 63.2222H52.7041V67.8518ZM57.1115 65.2222C57.7782 66.037 57.0004 67.2963 55.8522 67.2963C55.0374 67.2963 54.9263 67.1481 54.9263 66C54.9263 64.8889 55.0374 64.7037 55.8152 64.7037C56.2967 64.7037 56.8893 64.9259 57.1115 65.2222Z" fill="white"/>
<path d="M70.8521 67.8518V72.4814H73.815C76.5187 72.4814 76.778 72.4074 76.778 71.7407C76.778 71.1111 76.5187 71 74.9261 71H73.0743V67.1111V63.2222H71.9632H70.8521V67.8518Z" fill="white"/>
<path d="M7.14844 76.7407C7.14844 77.037 7.33362 77.2963 7.51881 77.2963C7.74103 77.2963 7.88918 77.037 7.88918 76.7407C7.88918 76.4444 7.74103 76.1852 7.51881 76.1852C7.33362 76.1852 7.14844 76.4444 7.14844 76.7407Z" fill="white"/>
<path d="M44.9263 77.4814C44.9263 78.6666 44.8522 78.7777 44.2226 78.4074C43.3337 77.9629 41.7782 78.4444 41.4448 79.3333C41.0374 80.4444 41.2226 82.4074 41.8152 82.9999C42.4819 83.6666 44.0374 83.7777 44.3708 83.2222C44.5559 82.9259 44.7782 82.9629 45.1485 83.2592C45.593 83.6296 45.6671 83.1111 45.6671 79.9259C45.6671 77.6666 45.5189 76.1851 45.2967 76.1851C45.1115 76.1851 44.9263 76.7777 44.9263 77.4814ZM44.4819 79.2222C45.2226 79.9629 45.0374 82.4074 44.1856 82.8518C42.9634 83.5185 41.9634 82.7037 41.9634 81.074C41.9634 79.5925 42.4819 78.7777 43.4448 78.7777C43.7782 78.7777 44.2226 78.9629 44.4819 79.2222Z" fill="white"/>
<path d="M59.3707 77.4814C59.3707 78.6666 59.2966 78.7777 58.6669 78.4074C57.7781 77.9629 56.2225 78.4444 55.8892 79.3333C55.4818 80.4444 55.6669 82.4074 56.2595 82.9999C56.9262 83.6666 58.4818 83.7777 58.8151 83.2222C59.0003 82.9259 59.2225 82.9629 59.5929 83.2592C60.0373 83.6296 60.1114 83.1111 60.1114 79.9259C60.1114 77.6666 59.9632 76.1851 59.741 76.1851C59.5558 76.1851 59.3707 76.7777 59.3707 77.4814ZM58.9262 79.2222C59.6669 79.9629 59.4818 82.4074 58.6299 82.8518C57.4077 83.5185 56.4077 82.7037 56.4077 81.074C56.4077 79.5925 56.9262 78.7777 57.8892 78.7777C58.2225 78.7777 58.6669 78.9629 58.9262 79.2222Z" fill="white"/>
<path d="M0.852051 80.074C0.852051 82.1851 1.0002 83.5925 1.22242 83.5925C1.44464 83.5925 1.59279 82.9259 1.59279 82.111C1.59279 80.8148 1.7039 80.6296 2.44464 80.6296C3.07427 80.6296 3.55575 81.037 4.14835 82.111C4.59279 82.9259 5.11131 83.5925 5.33353 83.5925C5.81501 83.5925 5.77798 83.4444 4.88909 81.9259C4.14835 80.7036 4.14835 80.5555 4.7039 79.9259C5.51872 79.037 5.48168 77.4073 4.59279 76.9259C4.18538 76.7407 3.18538 76.5555 2.37057 76.5555H0.852051V80.074ZM4.37057 78.5925C4.37057 79.5925 4.25946 79.7036 3.0002 79.8148C1.59279 79.9259 1.59279 79.9259 1.59279 78.5925C1.59279 77.2592 1.59279 77.2592 3.0002 77.3703C4.25946 77.4814 4.37057 77.5925 4.37057 78.5925Z" fill="white"/>
<path d="M18.9631 77.5184C17.6297 78.9629 17.7038 81.4814 19.1482 82.7036C20.0001 83.4444 20.5186 83.5925 21.926 83.5184L23.6297 83.4073L23.7408 81.6295C23.8519 79.9258 23.8519 79.8888 22.7408 79.8888C22.1112 79.8888 21.5927 80.037 21.5927 80.2592C21.5927 80.4444 21.926 80.6295 22.3334 80.6295C22.926 80.6295 23.0742 80.8888 23.0742 81.7407C23.0742 82.7777 23.0001 82.8518 21.7038 82.8518C19.9631 82.8518 19.5186 82.5555 19.0001 81.2221C18.1112 78.8518 20.0742 76.5184 22.4445 77.1481C23.0742 77.2962 23.4445 77.2221 23.4445 76.9629C23.4445 76.7407 22.7038 76.5555 21.6668 76.5555C20.2223 76.5555 19.7038 76.7407 18.9631 77.5184Z" fill="white"/>
<path d="M70.8521 80.074C70.8521 82.4073 71.0002 83.5925 71.2595 83.5925C71.5558 83.5925 71.6298 82.6296 71.5187 80.6296C71.4446 78.9999 71.4076 77.6666 71.4446 77.6666C71.4817 77.6666 72.3706 78.9999 73.4446 80.6296C74.5187 82.2592 75.6298 83.5925 75.8891 83.5925C76.2965 83.5925 76.4076 82.8148 76.4076 80.074C76.4076 75.8518 75.7409 75.3333 75.5928 79.4073L75.4817 82.2962L73.6298 79.4444C72.6298 77.8518 71.5558 76.5555 71.3335 76.5555C70.9632 76.5555 70.8521 77.5185 70.8521 80.074Z" fill="white"/>
<path d="M88.3333 78.0369C88.074 78.4443 88.037 78.7777 88.2222 78.7777C88.4444 78.7777 88.6296 79.8147 88.7037 81.074C88.8148 83.2962 88.8518 83.4073 89.8518 83.5184C90.4074 83.5925 90.8518 83.4814 90.8518 83.2962C90.8518 83.111 90.5555 82.9629 90.2222 82.9999C89.6666 83.0369 89.5185 82.6666 89.4444 80.9258C89.3333 78.9999 89.4074 78.8147 90.1851 78.6666L91.037 78.5184L90.2222 78.4443C89.7407 78.4443 89.3703 78.1481 89.3703 77.8518C89.3703 77.074 88.8889 77.1481 88.3333 78.0369Z" fill="white"/>
<path d="M10.9632 78.4073C9.81503 78.8888 9.25947 80.111 9.55577 81.5925C9.77799 82.9259 10.6298 83.5925 12.1113 83.5925C14.1854 83.5925 14.9632 80.1851 13.2224 78.8148C12.1113 77.9629 12.1113 77.9629 10.9632 78.4073ZM13.0002 79.2222C13.9632 80.1851 13.1854 83.2222 12.0372 83.2222C11.2595 83.2222 10.1113 81.9629 10.1113 81.1481C10.1113 79.1481 11.778 77.9999 13.0002 79.2222Z" fill="white"/>
<path d="M27.2963 78.6295C26.6667 79.148 26.6667 79.1851 27.2593 78.9999C27.6296 78.8888 28.1111 78.7777 28.2963 78.7777C28.4815 78.7777 28.6296 78.5925 28.6296 78.4073C28.6296 77.8888 28.1481 77.9629 27.2963 78.6295Z" fill="white"/>
<path d="M30.778 78.2962C29.7039 78.5555 30.0372 78.9629 31.3335 78.9629C32.2594 78.9629 32.5187 79.111 32.5187 79.7036C32.5187 80.2592 32.2224 80.4814 31.2594 80.6296C29.7409 80.8518 29.0002 81.8147 29.5928 82.7407C30.1113 83.5925 31.4446 83.7777 32.1854 83.1851C32.6668 82.8147 32.815 82.8147 33.1113 83.2592C33.3335 83.5925 33.4446 82.9259 33.4446 81.2592C33.4446 78.9259 33.3705 78.7407 32.4817 78.4073C31.9631 78.1851 31.5187 78.074 31.4817 78.074C31.4446 78.111 31.1113 78.1851 30.778 78.2962ZM32.7039 81.7407C32.7039 82.5925 31.5187 83.3333 30.7039 82.9999C30.1113 82.7777 29.8891 81.7036 30.3705 81.2592C30.4817 81.111 31.0742 80.9999 31.6668 80.9999C32.4446 80.9999 32.7039 81.1851 32.7039 81.7407Z" fill="white"/>
<path d="M36.9631 78.3703C36.5556 78.5555 36.0001 78.5925 35.7779 78.5184C35.4075 78.3703 35.2964 78.9999 35.2964 80.9629C35.2964 84.074 35.9631 84.5184 36.1112 81.5184C36.1853 79.9999 36.4075 79.2962 36.889 78.9999C38.0742 78.2592 38.8149 79.1481 38.926 81.5184C39.0742 84.2962 39.7408 84.1851 39.7408 81.4073C39.7408 79.5184 39.6297 79.111 38.926 78.6295C38.0001 77.9629 38.0001 77.9629 36.9631 78.3703Z" fill="white"/>
<path d="M49 78.2961C47.4444 78.8517 46.9259 81.8517 48.1852 82.9628C48.9259 83.6665 51.037 83.8146 51.4074 83.2221C51.5556 82.9998 51.037 82.8517 50.1852 82.8517C48.7778 82.8517 48.2593 82.4443 48.2593 81.3332C48.2593 81.148 49.1111 80.9998 50.1111 80.9998C52.2593 80.9998 52.5185 80.4072 51.037 78.9628C50.1111 77.9998 49.963 77.9628 49 78.2961ZM50.7778 79.7776C50.8889 80.5184 50.7407 80.6295 49.5926 80.6295C48.1852 80.6295 47.8519 80.0739 48.7037 79.2221C49.4444 78.4813 50.6667 78.8517 50.7778 79.7776Z" fill="white"/>
<path d="M63.1853 78.4073C62.0372 78.8888 61.4816 80.111 61.7779 81.5925C62.0002 82.9259 62.852 83.5925 64.3335 83.5925C66.4076 83.5925 67.1853 80.1851 65.4446 78.8148C64.3335 77.9629 64.3335 77.9629 63.1853 78.4073ZM65.2224 79.2222C66.1853 80.1851 65.4076 83.2222 64.2594 83.2222C63.4816 83.2222 62.3335 81.9629 62.3335 81.1481C62.3335 79.1481 64.0002 77.9999 65.2224 79.2222Z" fill="white"/>
<path d="M79.4817 78.4073C78.3336 78.8888 77.778 80.111 78.0743 81.5925C78.2965 82.9259 79.1484 83.5925 80.6299 83.5925C82.704 83.5925 83.4817 80.1851 81.741 78.8148C80.6299 77.9629 80.6299 77.9629 79.4817 78.4073ZM81.5188 79.2222C82.4817 80.1851 81.704 83.2222 80.5558 83.2222C79.778 83.2222 78.6299 81.9629 78.6299 81.1481C78.6299 79.1481 80.2965 77.9999 81.5188 79.2222Z" fill="white"/>
<path d="M85.7411 78.6296C85.2967 78.9259 84.9263 78.9999 84.9263 78.8148C84.9263 78.5925 84.7781 78.4073 84.5559 78.4073C84.3337 78.4073 84.1855 79.5185 84.1855 80.9999C84.1855 82.4814 84.3337 83.5925 84.5559 83.5925C84.7781 83.5925 84.9263 82.8888 84.9263 81.9999C84.9263 80.3333 85.7411 78.7777 86.63 78.7777C86.9263 78.7777 87.1485 78.5925 87.1485 78.4073C87.1485 77.8888 86.7041 77.9629 85.7411 78.6296Z" fill="white"/>
<path d="M92.5185 78.9259C90.6666 80.7777 91.7407 83.5925 94.3704 83.5925C95.0741 83.5925 95.6666 83.4073 95.6666 83.2222C95.6666 82.9999 95.0741 82.8518 94.3704 82.8518C93.4815 82.8518 93 82.6296 92.7037 82.1481C92.1481 81.037 92.1852 80.9999 94.1852 80.9999C95.7407 80.9999 96.037 80.8888 96.037 80.3333C96.037 79.4444 95.2963 78.5185 94.2963 78.2222C93.6666 78.074 93.2222 78.2592 92.5185 78.9259ZM94.8518 79.2222C95.7407 80.111 95.3333 80.6296 93.8148 80.6296C92.2222 80.6296 92.1481 80.5555 92.7037 79.4814C93.1481 78.7036 94.1852 78.5555 94.8518 79.2222Z" fill="white"/>
<path d="M7.14844 80.9999C7.14844 82.4814 7.29659 83.5925 7.51881 83.5925C7.74103 83.5925 7.88918 82.4814 7.88918 80.9999C7.88918 79.5185 7.74103 78.4073 7.51881 78.4073C7.29659 78.4073 7.14844 79.5185 7.14844 80.9999Z" fill="white"/>
<path d="M25.667 81C25.667 84.1111 26.2966 84.4814 26.4818 81.4444C26.63 79.1851 26.5188 78.4074 26.0003 78.4074C25.8151 78.4074 25.667 79.5555 25.667 81Z" fill="white"/>
</svg>
