<svg width="212" height="82" viewBox="0 0 212 82" fill="none" xmlns="http://www.w3.org/2000/svg">
<path d="M166.311 51.0001H188.794V45.3334H166.311V51.0001ZM166.311 39.6667H188.794V34.0001H166.311V39.6667ZM160.69 62.3334C159.144 62.3334 157.821 61.7786 156.72 60.6688C155.619 59.5591 155.069 58.2251 155.069 56.6667V11.3334C155.069 9.77508 155.619 8.44105 156.72 7.33133C157.821 6.22161 159.144 5.66675 160.69 5.66675H183.173L200.036 22.6667V56.6667C200.036 58.2251 199.486 59.5591 198.385 60.6688C197.284 61.7786 195.961 62.3334 194.415 62.3334H160.69ZM180.363 25.5001V11.3334H160.69V56.6667H194.415V25.5001H180.363Z" fill="#0BDA51"/>
<path d="M33.8352 34.3125H26.3693C26.233 33.3466 25.9545 32.4886 25.5341 31.7386C25.1136 30.9773 24.5739 30.3295 23.9148 29.7955C23.2557 29.2614 22.4943 28.8523 21.6307 28.5682C20.7784 28.2841 19.8523 28.142 18.8523 28.142C17.0455 28.142 15.4716 28.5909 14.1307 29.4886C12.7898 30.375 11.75 31.6705 11.0114 33.375C10.2727 35.0682 9.90341 37.125 9.90341 39.5455C9.90341 42.0341 10.2727 44.125 11.0114 45.8182C11.7614 47.5114 12.8068 48.7898 14.1477 49.6534C15.4886 50.517 17.0398 50.9489 18.8011 50.9489C19.7898 50.9489 20.7045 50.8182 21.5455 50.5568C22.3977 50.2955 23.1534 49.9148 23.8125 49.4148C24.4716 48.9034 25.017 48.2841 25.4489 47.5568C25.892 46.8295 26.1989 46 26.3693 45.0682L33.8352 45.1023C33.642 46.7045 33.1591 48.25 32.3864 49.7386C31.625 51.2159 30.5966 52.5398 29.3011 53.7102C28.017 54.8693 26.483 55.7898 24.6989 56.4716C22.9261 57.142 20.9205 57.4773 18.6818 57.4773C15.5682 57.4773 12.7841 56.7727 10.3295 55.3636C7.88636 53.9545 5.95455 51.9148 4.53409 49.2443C3.125 46.5739 2.42045 43.3409 2.42045 39.5455C2.42045 35.7386 3.13636 32.5 4.56818 29.8295C6 27.1591 7.94318 25.125 10.3977 23.7273C12.8523 22.3182 15.6136 21.6136 18.6818 21.6136C20.7045 21.6136 22.5795 21.8977 24.3068 22.4659C26.0455 23.0341 27.5852 23.8636 28.9261 24.9545C30.267 26.0341 31.358 27.358 32.1989 28.9261C33.0511 30.4943 33.5966 32.2898 33.8352 34.3125ZM69.929 34.3125H62.4631C62.3267 33.3466 62.0483 32.4886 61.6278 31.7386C61.2074 30.9773 60.6676 30.3295 60.0085 29.7955C59.3494 29.2614 58.5881 28.8523 57.7244 28.5682C56.8722 28.2841 55.946 28.142 54.946 28.142C53.1392 28.142 51.5653 28.5909 50.2244 29.4886C48.8835 30.375 47.8438 31.6705 47.1051 33.375C46.3665 35.0682 45.9972 37.125 45.9972 39.5455C45.9972 42.0341 46.3665 44.125 47.1051 45.8182C47.8551 47.5114 48.9006 48.7898 50.2415 49.6534C51.5824 50.517 53.1335 50.9489 54.8949 50.9489C55.8835 50.9489 56.7983 50.8182 57.6392 50.5568C58.4915 50.2955 59.2472 49.9148 59.9062 49.4148C60.5653 48.9034 61.1108 48.2841 61.5426 47.5568C61.9858 46.8295 62.2926 46 62.4631 45.0682L69.929 45.1023C69.7358 46.7045 69.2528 48.25 68.4801 49.7386C67.7188 51.2159 66.6903 52.5398 65.3949 53.7102C64.1108 54.8693 62.5767 55.7898 60.7926 56.4716C59.0199 57.142 57.0142 57.4773 54.7756 57.4773C51.6619 57.4773 48.8778 56.7727 46.4233 55.3636C43.9801 53.9545 42.0483 51.9148 40.6278 49.2443C39.2188 46.5739 38.5142 43.3409 38.5142 39.5455C38.5142 35.7386 39.2301 32.5 40.6619 29.8295C42.0938 27.1591 44.0369 25.125 46.4915 23.7273C48.946 22.3182 51.7074 21.6136 54.7756 21.6136C56.7983 21.6136 58.6733 21.8977 60.4006 22.4659C62.1392 23.0341 63.679 23.8636 65.0199 24.9545C66.3608 26.0341 67.4517 27.358 68.2926 28.9261C69.1449 30.4943 69.6903 32.2898 69.929 34.3125Z" fill="white"/>
<path d="M81.2386 57H73.3295L85.3807 22.0909H94.892L106.926 57H99.017L90.2727 30.0682H90L81.2386 57ZM80.7443 43.2784H99.4261V49.0398H80.7443V43.2784ZM111.128 22.0909H120.23L129.844 45.5455H130.253L139.866 22.0909H148.969V57H141.81V34.2784H141.52L132.486 56.8295H127.611L118.577 34.1932H118.287V57H111.128V22.0909Z" fill="#0BDA51"/>
</svg>
