<svg width="24" height="24" viewBox="0 0 24 24" fill="none" xmlns="http://www.w3.org/2000/svg">
<path d="M21.9375 23.25C19.3333 23.25 16.7604 22.6823 14.2188 21.5469C11.6771 20.4115 9.36458 18.8021 7.28125 16.7188C5.19792 14.6354 3.58854 12.3229 2.45312 9.78125C1.31771 7.23958 0.75 4.66667 0.75 2.0625C0.75 1.6875 0.875 1.375 1.125 1.125C1.375 0.875 1.6875 0.75 2.0625 0.75H7.125C7.41667 0.75 7.67708 0.848958 7.90625 1.04688C8.13542 1.24479 8.27083 1.47917 8.3125 1.75L9.125 6.125C9.16667 6.45833 9.15625 6.73958 9.09375 6.96875C9.03125 7.19792 8.91667 7.39583 8.75 7.5625L5.71875 10.625C6.13542 11.3958 6.63021 12.1406 7.20312 12.8594C7.77604 13.5781 8.40625 14.2708 9.09375 14.9375C9.73958 15.5833 10.4167 16.1823 11.125 16.7344C11.8333 17.2865 12.5833 17.7917 13.375 18.25L16.3125 15.3125C16.5 15.125 16.7448 14.9844 17.0469 14.8906C17.349 14.7969 17.6458 14.7708 17.9375 14.8125L22.25 15.6875C22.5417 15.7708 22.7812 15.9219 22.9688 16.1406C23.1562 16.3594 23.25 16.6042 23.25 16.875V21.9375C23.25 22.3125 23.125 22.625 22.875 22.875C22.625 23.125 22.3125 23.25 21.9375 23.25ZM4.53125 8.25L6.59375 6.1875L6.0625 3.25H3.28125C3.38542 4.10417 3.53125 4.94792 3.71875 5.78125C3.90625 6.61458 4.17708 7.4375 4.53125 8.25ZM15.7188 19.4375C16.5312 19.7917 17.3594 20.0729 18.2031 20.2812C19.0469 20.4896 19.8958 20.625 20.75 20.6875V17.9375L17.8125 17.3438L15.7188 19.4375Z" fill="#0BDA51"/>
</svg>
